<?xml version="1.0" encoding="UTF-8" standalone="no"?>
<svg
   xmlns:dc="http://purl.org/dc/elements/1.1/"
   xmlns:cc="http://creativecommons.org/ns#"
   xmlns:rdf="http://www.w3.org/1999/02/22-rdf-syntax-ns#"
   xmlns:svg="http://www.w3.org/2000/svg"
   xmlns="http://www.w3.org/2000/svg"
   xmlns:sodipodi="http://sodipodi.sourceforge.net/DTD/sodipodi-0.dtd"
   xmlns:inkscape="http://www.inkscape.org/namespaces/inkscape"
   width="110"
   height="29"
   viewBox="0 0 110 29"
   version="1.1"
   id="svg2"
   inkscape:version="0.91 r13725"
   sodipodi:docname="Group.svg">
  <metadata
     id="metadata20">
    <rdf:RDF>
      <cc:Work
         rdf:about="">
        <dc:format>image/svg+xml</dc:format>
        <dc:type
           rdf:resource="http://purl.org/dc/dcmitype/StillImage" />
        <dc:title>Group</dc:title>
      </cc:Work>
    </rdf:RDF>
  </metadata>
  <sodipodi:namedview
     pagecolor="#ffffff"
     bordercolor="#666666"
     borderopacity="1"
     objecttolerance="10"
     gridtolerance="10"
     guidetolerance="10"
     inkscape:pageopacity="0"
     inkscape:pageshadow="2"
     inkscape:window-width="1301"
     inkscape:window-height="744"
     id="namedview18"
     showgrid="false"
     showguides="false"
     inkscape:guide-bbox="true"
     inkscape:zoom="2"
     inkscape:cx="-5.1871765"
     inkscape:cy="16.369603"
     inkscape:window-x="65"
     inkscape:window-y="24"
     inkscape:window-maximized="1"
     inkscape:current-layer="svg2">
    <sodipodi:guide
       position="92.992188,17.105469"
       orientation="1,0"
       id="guide4158" />
  </sodipodi:namedview>
  <!-- Generator: Sketch 3.6.1 (26313) - http://www.bohemiancoding.com/sketch -->
  <title
     id="title4">Group</title>
  <desc
     id="desc6">Created with Sketch.</desc>
  <defs
     id="defs8" />
  <g
     id="STEEMIT"
     style="fill:none;fill-rule:evenodd;stroke:none;stroke-width:1">
    <g
       id="STEEM-4.0"
       transform="translate(-211,-123)">
      <g
         id="Group"
         transform="translate(211,123)">
        <g
           id="Page-1">
          <path
             d="M 4.2292444,3.2319575 C 3.9448889,3.0900426 0.33786667,6.0714894 0.33786667,8.265 c -0.004978,2.998106 4.20746663,9.790277 4.91680003,12.417553 0.6104,2.253362 -1.0353778,4.957766 -0.5830223,5.080553 C 5.0848,26.028425 9.0147556,22.048638 9.1678222,20.35183 9.3650667,17.649894 4.5789333,9.7711489 4.1975111,7.7368298 3.7551111,5.3625319 4.5478222,3.2850213 4.2292444,3.2319575 l 0,0 z"
             id="Fill-1"
             inkscape:connector-curvature="0"
             style="fill:#1a5099" />
          <path
             d="M 13.232178,0.13019149 C 12.870044,-0.05059574 8.2687111,3.7477872 8.2687111,6.5484468 8.2637333,10.371511 13.635378,19.033872 14.539467,22.381213 c 0.777777,2.873468 -1.319734,6.322617 -0.746045,6.476872 0.530134,0.336894 5.539022,-4.733787 5.736267,-6.900766 0.252622,-3.444213 -5.853245,-13.489936 -6.3392,-16.0882126 -0.563733,-3.0203192 0.444889,-5.67165959 0.04169,-5.73891491 l 0,0 z"
             id="Fill-2"
             inkscape:connector-curvature="0"
             style="fill:#4ba2f2" />
          <path
             d="M 22.523822,3.2319575 C 22.241956,3.0900426 18.632444,6.0714894 18.632444,8.265 c -0.0044,2.998106 4.207467,9.790277 4.917423,12.417553 0.609777,2.253362 -1.035378,4.957766 -0.583645,5.080553 0.415645,0.265319 4.346222,-3.714468 4.4968,-5.411276 C 27.659644,17.649894 22.874133,9.7711489 22.492089,7.7368298 22.050311,5.3625319 22.8424,3.2850213 22.523822,3.2319575 l 0,0 z"
             id="Fill-3"
             inkscape:connector-curvature="0"
             style="fill:#1a5099" />
        </g>
        <path
           d="m 46.7465,16.465 c 0,-3.237 -5.031,-2.236 -5.031,-3.835 0,-0.637 0.559,-1.066 1.443,-1.066 0.702,0 1.417,0.182 2.028,0.585 0.13,0.091 0.273,0.13 0.416,0.13 0.377,0 0.754,-0.312 0.754,-0.715 0,-0.143 -0.052,-0.299 -0.156,-0.416 -0.572,-0.624 -1.872,-0.949 -2.912,-0.949 -1.911,0 -3.159,1.105 -3.159,2.548 0,3.198 5.044,2.08 5.044,3.874 0,0.559 -0.494,1.17 -1.716,1.17 -0.91,0 -1.677,-0.325 -2.275,-0.78 -0.117,-0.091 -0.273,-0.13 -0.416,-0.13 -0.39,0 -0.741,0.338 -0.741,0.741 0,0.156 0.052,0.299 0.156,0.429 0.585,0.689 1.937,1.105 3.211,1.105 2.34,0 3.354,-1.235 3.354,-2.691 l 0,0 z m 9.579,-5.447 c 0,-0.39 -0.312,-0.689 -0.676,-0.689 l -5.59,0 c -0.377,0 -0.676,0.299 -0.676,0.663 0,0.403 0.299,0.702 0.676,0.702 l 2.015,0 0,6.617 c 0,0.416 0.338,0.767 0.767,0.767 0.442,0 0.793,-0.351 0.793,-0.767 l 0,-6.617 2.015,0 c 0.364,0 0.676,-0.299 0.676,-0.676 l 0,0 z m 9.228,7.28 c 0,-0.364 -0.299,-0.663 -0.663,-0.663 l -3.822,0 0,-2.366 3.731,0 c 0.364,0 0.663,-0.299 0.663,-0.676 0,-0.39 -0.299,-0.689 -0.663,-0.689 l -3.731,0 0,-2.21 3.822,0 c 0.364,0 0.663,-0.299 0.663,-0.676 0,-0.39 -0.299,-0.689 -0.663,-0.689 l -4.433,0 c -0.52,0 -0.936,0.429 -0.936,0.936 l 0,6.799 c 0,0.507 0.416,0.936 0.936,0.936 l 4.433,0 c 0.364,0 0.663,-0.299 0.663,-0.702 l 0,0 z m 9.514,0 c 0,-0.364 -0.299,-0.663 -0.663,-0.663 l -3.822,0 0,-2.366 3.731,0 c 0.364,0 0.663,-0.299 0.663,-0.676 0,-0.39 -0.299,-0.689 -0.663,-0.689 l -3.731,0 0,-2.21 3.822,0 c 0.364,0 0.663,-0.299 0.663,-0.676 0,-0.39 -0.299,-0.689 -0.663,-0.689 l -4.433,0 c -0.52,0 -0.936,0.429 -0.936,0.936 l 0,6.799 c 0,0.507 0.416,0.936 0.936,0.936 l 4.433,0 c 0.364,0 0.663,-0.299 0.663,-0.702 l 0,0 z m 12.53,0.013 0,-7.033 c 0,-0.702 -0.676,-1.053 -1.378,-0.975 -0.494,0 -0.923,0.286 -1.105,0.728 l -2.054,5.031 -2.041,-5.031 c -0.247,-0.585 -0.832,-0.78 -1.495,-0.728 -0.533,0 -0.975,0.442 -0.975,0.975 l 0,7.033 c 0,0.416 0.338,0.767 0.754,0.767 0.442,0 0.793,-0.351 0.793,-0.767 l 0,-5.798 2.548,6.292 c 0.065,0.156 0.234,0.273 0.403,0.273 0.208,0 0.364,-0.117 0.429,-0.273 l 2.561,-6.292 0,5.798 c 0,0.416 0.338,0.767 0.767,0.767 0.442,0 0.793,-0.351 0.793,-0.767 l 0,0 z"
           id="steem"
           inkscape:connector-curvature="0"
           style="fill:#1a5099" />
        <path
           id="path4152"
           d="m 46.7465,16.465 c 0,-3.237 -5.031,-2.236 -5.031,-3.835 0,-0.637 0.559,-1.066 1.443,-1.066 0.702,0 1.417,0.182 2.028,0.585 0.13,0.091 0.273,0.13 0.416,0.13 0.377,0 0.754,-0.312 0.754,-0.715 0,-0.143 -0.052,-0.299 -0.156,-0.416 -0.572,-0.624 -1.872,-0.949 -2.912,-0.949 -1.911,0 -3.159,1.105 -3.159,2.548 0,3.198 5.044,2.08 5.044,3.874 0,0.559 -0.494,1.17 -1.716,1.17 -0.91,0 -1.677,-0.325 -2.275,-0.78 -0.117,-0.091 -0.273,-0.13 -0.416,-0.13 -0.39,0 -0.741,0.338 -0.741,0.741 0,0.156 0.052,0.299 0.156,0.429 0.585,0.689 1.937,1.105 3.211,1.105 2.34,0 3.354,-1.235 3.354,-2.691 z m 9.579,-5.447 c 0,-0.39 -0.312,-0.689 -0.676,-0.689 l -5.59,0 c -0.377,0 -0.676,0.299 -0.676,0.663 0,0.403 0.299,0.702 0.676,0.702 l 2.015,0 0,6.617 c 0,0.416 0.338,0.767 0.767,0.767 0.442,0 0.793,-0.351 0.793,-0.767 l 0,-6.617 2.015,0 c 0.364,0 0.676,-0.299 0.676,-0.676 z m 9.228,7.28 c 0,-0.364 -0.299,-0.663 -0.663,-0.663 l -3.822,0 0,-2.366 3.731,0 c 0.364,0 0.663,-0.299 0.663,-0.676 0,-0.39 -0.299,-0.689 -0.663,-0.689 l -3.731,0 0,-2.21 3.822,0 c 0.364,0 0.663,-0.299 0.663,-0.676 0,-0.39 -0.299,-0.689 -0.663,-0.689 l -4.433,0 c -0.52,0 -0.936,0.429 -0.936,0.936 l 0,6.799 c 0,0.507 0.416,0.936 0.936,0.936 l 4.433,0 c 0.364,0 0.663,-0.299 0.663,-0.702 z m 22.044,0.013 0,-7.033 c 0,-0.702 -0.676,-1.053 -1.378,-0.975 -0.494,0 -0.923,0.286 -1.105,0.728 l -2.054,5.031 -2.041,-5.031 c -0.247,-0.585 -0.832,-0.78 -1.495,-0.728 -0.533,0 -0.975,0.442 -0.975,0.975 l 0,7.033 c 0,0.416 0.338,0.767 0.754,0.767 0.442,0 0.793,-0.351 0.793,-0.767 l 0,-5.798 2.548,6.292 c 0.065,0.156 0.234,0.273 0.403,0.273 0.208,0 0.364,-0.117 0.429,-0.273 l 2.561,-6.292 0,5.798 c 0,0.416 0.338,0.767 0.767,0.767 0.442,0 0.793,-0.351 0.793,-0.767 z"
           inkscape:connector-curvature="0"
           style="fill:#1a5099"
           sodipodi:nodetypes="csscsscsssscsscscscsssscssscssccsccsssccssssssscscccscccccssssccsc" />
        <path
           sodipodi:nodetypes="csscsscsssscsscscscsssscssscssccsccsssccssssssscscccscccccssssccsc"
           style="fill:#1a5099"
           inkscape:connector-curvature="0"
           d="m 46.7465,16.465 c 0,-3.237 -5.031,-2.236 -5.031,-3.835 0,-0.637 0.559,-1.066 1.443,-1.066 0.702,0 1.417,0.182 2.028,0.585 0.13,0.091 0.273,0.13 0.416,0.13 0.377,0 0.754,-0.312 0.754,-0.715 0,-0.143 -0.052,-0.299 -0.156,-0.416 -0.572,-0.624 -1.872,-0.949 -2.912,-0.949 -1.911,0 -3.159,1.105 -3.159,2.548 0,3.198 5.044,2.08 5.044,3.874 0,0.559 -0.494,1.17 -1.716,1.17 -0.91,0 -1.677,-0.325 -2.275,-0.78 -0.117,-0.091 -0.273,-0.13 -0.416,-0.13 -0.39,0 -0.741,0.338 -0.741,0.741 0,0.156 0.052,0.299 0.156,0.429 0.585,0.689 1.937,1.105 3.211,1.105 2.34,0 3.354,-1.235 3.354,-2.691 z m 9.579,-5.447 c 0,-0.39 -0.312,-0.689 -0.676,-0.689 l -5.59,0 c -0.377,0 -0.676,0.299 -0.676,0.663 0,0.403 0.299,0.702 0.676,0.702 l 2.015,0 0,6.617 c 0,0.416 0.338,0.767 0.767,0.767 0.442,0 0.793,-0.351 0.793,-0.767 l 0,-6.617 2.015,0 c 0.364,0 0.676,-0.299 0.676,-0.676 z m 9.228,7.28 c 0,-0.364 -0.299,-0.663 -0.663,-0.663 l -3.822,0 0,-2.366 3.731,0 c 0.364,0 0.663,-0.299 0.663,-0.676 0,-0.39 -0.299,-0.689 -0.663,-0.689 l -3.731,0 0,-2.21 3.822,0 c 0.364,0 0.663,-0.299 0.663,-0.676 0,-0.39 -0.299,-0.689 -0.663,-0.689 l -4.433,0 c -0.52,0 -0.936,0.429 -0.936,0.936 l 0,6.799 c 0,0.507 0.416,0.936 0.936,0.936 l 4.433,0 c 0.364,0 0.663,-0.299 0.663,-0.702 z m 22.044,0.013 0,-7.033 c 0,-0.702 -0.676,-1.053 -1.378,-0.975 -0.494,0 -0.923,0.286 -1.105,0.728 l -2.054,5.031 -2.041,-5.031 c -0.247,-0.585 -0.832,-0.78 -1.495,-0.728 -0.533,0 -0.975,0.442 -0.975,0.975 l 0,7.033 c 0,0.416 0.338,0.767 0.754,0.767 0.442,0 0.793,-0.351 0.793,-0.767 l 0,-5.798 2.548,6.292 c 0.065,0.156 0.234,0.273 0.403,0.273 0.208,0 0.364,-0.117 0.429,-0.273 l 2.561,-6.292 0,5.798 c 0,0.416 0.338,0.767 0.767,0.767 0.442,0 0.793,-0.351 0.793,-0.767 z"
           id="path4154" />
        <path
           id="path4156"
           d="m 46.7465,16.465 c 0,-3.237 -5.031,-2.236 -5.031,-3.835 0,-0.637 0.559,-1.066 1.443,-1.066 0.702,0 1.417,0.182 2.028,0.585 0.13,0.091 0.273,0.13 0.416,0.13 0.377,0 0.754,-0.312 0.754,-0.715 0,-0.143 -0.052,-0.299 -0.156,-0.416 -0.572,-0.624 -1.872,-0.949 -2.912,-0.949 -1.911,0 -3.159,1.105 -3.159,2.548 0,3.198 5.044,2.08 5.044,3.874 0,0.559 -0.494,1.17 -1.716,1.17 -0.91,0 -1.677,-0.325 -2.275,-0.78 -0.117,-0.091 -0.273,-0.13 -0.416,-0.13 -0.39,0 -0.741,0.338 -0.741,0.741 0,0.156 0.052,0.299 0.156,0.429 0.585,0.689 1.937,1.105 3.211,1.105 2.34,0 3.354,-1.235 3.354,-2.691 z m 9.579,-5.447 c 0,-0.39 -0.312,-0.689 -0.676,-0.689 l -5.59,0 c -0.377,0 -0.676,0.299 -0.676,0.663 0,0.403 0.299,0.702 0.676,0.702 l 2.015,0 0,6.617 c 0,0.416 0.338,0.767 0.767,0.767 0.442,0 0.793,-0.351 0.793,-0.767 l 0,-6.617 2.015,0 c 0.364,0 0.676,-0.299 0.676,-0.676 z m 41.153926,7.28 c 0,-0.364 -0.299,-0.913 -0.663,-0.913 l -3.720438,0.0078 0,-2.116 0,-1.365 0,-2.21 c 0,0 0.0043,-0.253114 0.0057,-0.422092 0,-0.39 -0.353686,-0.950718 -0.717686,-0.950718 l -5.99e-4,0 c -0.52,0 -0.936,0.429 -0.936,0.936 l 0,6.799 c 0,0.507 0.416,0.936 0.936,0.936 l 4.433,0 c 0.364,0 0.663,-0.299 0.662999,-0.702002 z m 9.514004,0 c 0,-0.364 -0.299,-0.663 -0.663,-0.663 l -3.822,0 0,-2.366 3.731,0 c 0.364,0 0.663,-0.299 0.663,-0.676 0,-0.39 -0.299,-0.689 -0.663,-0.689 l -3.731,0 0,-2.21 3.822,0 c 0.364,0 0.663,-0.299 0.663,-0.676 0,-0.39 -0.299,-0.689 -0.663,-0.689 l -4.433,0 c -0.52,0 -0.936,0.429 -0.936,0.936 l 0,6.799 c 0,0.507 0.416,0.936 0.936,0.936 l 4.433,0 c 0.364,0 0.663,-0.299 0.663,-0.702 z m -19.39593,0.013 0,-7.033 c 0,-0.702 -0.676,-1.053 -1.378,-0.975 -0.494,0 -0.923,0.286 -1.105,0.728 l -2.054,5.031 -2.041,-5.031 c -0.247,-0.585 -0.832,-0.78 -1.495,-0.728 -0.533,0 -0.975,0.442 -0.975,0.975 l 0,7.033 c 0,0.416 0.338,0.767 0.754,0.767 0.442,0 0.793,-0.351 0.793,-0.767 l 0,-5.798 2.548,6.292 c 0.065,0.156 0.234,0.273 0.403,0.273 0.208,0 0.364,-0.117 0.429,-0.273 l 2.561,-6.292 0,5.798 c 0,0.416 0.338,0.767 0.767,0.767 0.442,0 0.793,-0.351 0.793,-0.767 z"
           inkscape:connector-curvature="0"
           style="fill:#1a5099"
           sodipodi:nodetypes="csscsscsssscsscscscsssscssscssccccccsssssssscccsccsssccsssssscscccscccccssssccscs" />
      </g>
    </g>
  </g>
  <ellipse
     cy="11.324644"
     cx="11.86793"
     id="circle4175"
     style="fill:none;fill-opacity:1;stroke:#ffffff;stroke-width:3.77722073;stroke-miterlimit:4;stroke-dasharray:none;stroke-opacity:1"
     rx="5.9800291"
     ry="5.5485706" />
  <path
     sodipodi:nodetypes="cc"
     inkscape:connector-curvature="0"
     id="path4177"
     d="M 23.028945,22.028624 16.083361,15.144971"
     style="fill:none;fill-rule:evenodd;stroke:#ffffff;stroke-width:3.77722073;stroke-linecap:round;stroke-linejoin:miter;stroke-miterlimit:4;stroke-dasharray:none;stroke-opacity:1" />
  <ellipse
     style="fill:none;fill-opacity:1;stroke:#00004f;stroke-width:1.51088834;stroke-miterlimit:4;stroke-dasharray:none;stroke-opacity:1"
     id="path4171"
     cx="11.86793"
     cy="11.324644"
     rx="5.9800291"
     ry="5.5485706" />
  <path
     style="fill:none;fill-rule:evenodd;stroke:#00004f;stroke-width:1.51088834;stroke-linecap:butt;stroke-linejoin:miter;stroke-miterlimit:4;stroke-dasharray:none;stroke-opacity:1"
     d="M 23.028945,22.028624 16.083361,15.144971"
     id="path4173"
     inkscape:connector-curvature="0"
     sodipodi:nodetypes="cc" />
</svg>
